<svg width="30" height="31" viewBox="0 0 30 31" fill="none" xmlns="http://www.w3.org/2000/svg">
<path d="M15 0.141602C6.7 0.141602 0 6.8416 0 15.1416C0 23.4416 6.7 30.1416 15 30.1416C23.3 30.1416 30 23.4416 30 15.1416C30 6.8416 23.3 0.141602 15 0.141602ZM24 20.7416C24 21.2416 23.6 21.6416 23.1 21.6416H7C6.4 21.6416 6 21.1416 6 20.6416V10.9416L15 15.6416L24 10.9416V20.7416ZM24 9.8416L15 14.5416L6 9.8416V9.6416C6 9.1416 6.4 8.6416 7 8.6416H23C23.6 8.6416 24 9.1416 24 9.6416V9.8416Z" fill="white"/>
</svg>
