<svg width="30" height="30" viewBox="0 0 30 30" fill="none" xmlns="http://www.w3.org/2000/svg">
<path d="M15 0.512207C6.7125 0.512207 2.18932e-06 7.22471 2.18932e-06 15.5122C-0.00169914 18.6611 0.988222 21.7306 2.82933 24.2852C4.67043 26.8398 7.26922 28.7498 10.257 29.7442C11.007 29.8747 11.2875 29.4247 11.2875 29.0302C11.2875 28.6747 11.268 27.4942 11.268 26.2372C7.5 26.9317 6.525 25.3192 6.225 24.4747C6.0555 24.0427 5.325 22.7122 4.6875 22.3552C4.1625 22.0747 3.4125 21.3802 4.668 21.3622C5.85 21.3427 6.693 22.4497 6.975 22.8997C8.325 25.1677 10.482 24.5302 11.343 24.1372C11.475 23.1622 11.868 22.5067 12.3 22.1317C8.9625 21.7567 5.475 20.4622 5.475 14.7247C5.475 13.0927 6.0555 11.7442 7.0125 10.6927C6.8625 10.3177 6.3375 8.78021 7.1625 6.71771C7.1625 6.71771 8.418 6.32471 11.2875 8.25671C12.5086 7.9178 13.7703 7.74722 15.0375 7.74971C16.3125 7.74971 17.5875 7.91771 18.7875 8.25521C21.6555 6.30521 22.9125 6.71921 22.9125 6.71921C23.7375 8.78171 23.2125 10.3192 23.0625 10.6942C24.018 11.7442 24.6 13.0747 24.6 14.7247C24.6 20.4817 21.0945 21.7567 17.757 22.1317C18.3 22.5997 18.7695 23.4997 18.7695 24.9067C18.7695 26.9122 18.75 28.5247 18.75 29.0317C18.75 29.4247 19.032 29.8927 19.782 29.7427C22.7595 28.7374 25.3469 26.8237 27.1799 24.2709C29.0128 21.7182 29.9991 18.6549 30 15.5122C30 7.22471 23.2875 0.512207 15 0.512207Z" fill="#70e61c"/>
</svg>
