<svg width="30" height="31" viewBox="0 0 30 31" fill="none" xmlns="http://www.w3.org/2000/svg">
<path d="M15 0.141602C6.7 0.141602 0 6.8416 0 15.1416C0 23.4416 6.7 30.1416 15 30.1416C23.3 30.1416 30 23.4416 30 15.1416C30 6.8416 23.3 0.141602 15 0.141602ZM6.7 5.6416C7.1 5.3416 7.6 5.1416 8 5.1416C8.4 5.1416 9 5.3416 9.3 5.6416C9.6 6.0416 9.8 6.4416 9.8 6.9416C9.8 7.4416 9.6 7.9416 9.2 8.2416C9 8.6416 8.5 8.8416 8 8.8416C7.5 8.8416 7 8.6416 6.7 8.3416C6.4 7.9416 6.2 7.4416 6.2 6.9416C6.2 6.4416 6.4 6.0416 6.7 5.6416ZM9.9 21.7416H6.2V10.2416H9.9V21.7416ZM23.8 21.7416H20.1V15.6416C20.1 11.9416 15.7 12.2416 15.7 15.6416V21.7416H12.1V10.2416H15.8V11.7416C17.3 8.9416 23.9 8.7416 23.9 14.4416V21.7416H23.8Z" fill="white"/>
</svg>
